<svg height='100px' width='100px'  fill="#1A1A1A" xmlns="http://www.w3.org/2000/svg" xmlns:xlink="http://www.w3.org/1999/xlink" version="1.1" x="0px" y="0px" viewBox="0 0 64 64" style="enable-background:new 0 0 64 64;" xml:space="preserve"><style type="text/css">
	.st0{fill:none;}
</style><path d="M45,36h-3v-4H14v25c0,2.8,2.2,5,5,5h18c2.8,0,5-2.2,5-5v-3h3c2.8,0,5-2.2,5-5v-8C50,38.2,47.8,36,45,36z M23.9,54.5l-1.7,1  L17.8,48l4.3-7.5l1.7,1L20.2,48L23.9,54.5z M27,55.3L25,54.7l4-14l1.9,0.5L27,55.3z M33.9,55.5l-1.7-1l3.7-6.5l-3.7-6.5l1.7-1  l4.3,7.5L33.9,55.5z M48,49c0,1.7-1.3,3-3,3h-3V38h3c1.7,0,3,1.3,3,3V49z"></path><g><path d="M38,30h-2v-2c0-1.1-0.9-2-2-2H20c-2.2,0-4-1.8-4-4s1.8-4,4-4h14c1.1,0,2-0.9,2-2s-0.9-2-2-2H20c-2.2,0-4-1.8-4-4s1.8-4,4-4   h14c1.1,0,2-0.9,2-2V2h2v2c0,2.2-1.8,4-4,4H20c-1.1,0-2,0.9-2,2s0.9,2,2,2h14c2.2,0,4,1.8,4,4s-1.8,4-4,4H20c-1.1,0-2,0.9-2,2   s0.9,2,2,2h14c2.2,0,4,1.8,4,4V30z"></path></g></svg>