<svg data-v-423bf9ae="" xmlns="http://www.w3.org/2000/svg" viewBox="0 0 512 90" class="iconLeft"><!----><!----><!----><g data-v-423bf9ae="" id="0fab6625-2774-46fc-b015-d13084d999ec" fill="#000000" transform="matrix(4.797202315178129,0,0,4.797202315178129,72.84494629179915,13.260004893655815)"><path d="M7.49 1.13L0.50 1.13C-0.15 1.13 0.55 2.58 1.20 2.58L3.18 2.58L3.18 9.63C3.18 10.19 4.94 10.19 4.94 9.63L4.94 2.58L7.49 2.58C8.04 2.58 8.04 1.13 7.49 1.13ZM15.65 8.57C15.53 8.62 15.41 8.64 15.32 8.64C15.04 8.64 14.92 8.44 14.92 8.05L14.92 7.50L14.92 5.73C14.92 4.26 14.06 3.37 12.66 3.37C11.73 3.37 10.89 3.68 10.23 4.33L10.23 0.63C10.23-0.03 8.58 0.66 8.58 1.32L8.58 9.63C8.58 10.19 10.23 10.19 10.23 9.63L10.23 5.75C10.82 5.07 11.44 4.82 11.98 4.82C12.82 4.82 13.27 5.26 13.27 6.30L13.27 7.20L13.27 8.29C13.27 9.65 13.85 10.11 14.57 10.11C14.92 10.11 15.27 10.01 15.65 9.87C16.25 9.62 16.23 8.29 15.65 8.57ZM20.06 10.05C22.15 10.05 23.37 8.82 23.37 6.72C23.37 4.61 22.15 3.36 20.06 3.36C17.98 3.36 16.76 4.61 16.76 6.72C16.76 8.82 17.98 10.05 20.06 10.05ZM20.06 8.82C19.01 8.82 18.40 8.06 18.40 6.72C18.40 5.35 19.01 4.59 20.06 4.59C21.11 4.59 21.73 5.35 21.73 6.72C21.73 8.06 21.11 8.82 20.06 8.82ZM31.50 8.57C31.37 8.62 31.28 8.64 31.18 8.64C30.90 8.64 30.76 8.44 30.76 8.04L30.76 7.52L30.76 5.73C30.76 4.26 29.90 3.37 28.50 3.37C27.57 3.37 26.70 3.71 26.01 4.38L25.79 3.67C25.65 3.29 24.42 3.25 24.42 3.78L24.42 9.63C24.42 10.19 26.05 10.19 26.05 9.63L26.05 5.77C26.66 5.08 27.26 4.82 27.82 4.82C28.66 4.82 29.12 5.26 29.12 6.30L29.12 7.20L29.12 8.29C29.12 9.65 29.68 10.11 30.41 10.11C30.76 10.11 31.12 10.01 31.50 9.87C32.09 9.62 32.06 8.29 31.50 8.57ZM39.86 2.79C39.02 2.80 38.44 3.23 38.05 3.78C37.55 3.51 36.86 3.36 36.04 3.36C34.12 3.36 32.98 4.17 32.98 5.54C32.98 6.29 33.32 6.86 33.95 7.24C33.38 7.48 33.00 7.91 33.00 8.55C33.00 9.02 33.21 9.31 33.53 9.51C33.19 9.81 33.00 10.22 33.00 10.74C33.00 11.91 33.95 12.87 36.20 12.87C38.21 12.87 39.27 11.90 39.27 10.46C39.27 8.78 37.24 8.71 35.81 8.65C35.15 8.64 34.65 8.55 34.65 8.12C34.65 7.88 34.82 7.73 35.07 7.62C35.36 7.67 35.69 7.70 36.04 7.70C37.98 7.70 39.09 6.90 39.09 5.54C39.09 5.12 38.99 4.76 38.78 4.45C39.03 4.31 39.28 4.26 39.61 4.24C40.11 4.24 40.36 2.77 39.86 2.79ZM36.04 6.51C35.15 6.51 34.64 6.16 34.64 5.54C34.64 4.90 35.15 4.55 36.04 4.55C36.93 4.55 37.45 4.90 37.45 5.54C37.45 6.16 36.93 6.51 36.04 6.51ZM35 9.86C35.11 9.86 35.45 9.87 35.69 9.88C36.69 9.91 37.63 9.91 37.63 10.64C37.63 11.27 37.07 11.68 36.20 11.68C35.25 11.68 34.65 11.27 34.65 10.63C34.65 10.26 34.78 10.01 35 9.86ZM50.32 1.92L50.32 6.59C49.17 4.68 47.81 2.95 45.95 1.19C45.70 0.94 44.39 0.90 44.39 1.46L44.39 9.63C44.39 10.19 46.03 10.19 46.03 9.63L46.03 3.50C47.75 5.32 48.89 6.86 50.33 9.80C50.50 10.14 51.97 10.19 51.97 9.63L51.97 1.22C51.97 0.56 50.32 1.26 50.32 1.92ZM60.41 2.79C59.57 2.80 59.00 3.23 58.60 3.78C58.10 3.51 57.41 3.36 56.59 3.36C54.67 3.36 53.54 4.17 53.54 5.54C53.54 6.29 53.87 6.86 54.50 7.24C53.93 7.48 53.55 7.91 53.55 8.55C53.55 9.02 53.76 9.31 54.08 9.51C53.75 9.81 53.55 10.22 53.55 10.74C53.55 11.91 54.50 12.87 56.76 12.87C58.76 12.87 59.82 11.90 59.82 10.46C59.82 8.78 57.79 8.71 56.36 8.65C55.71 8.64 55.20 8.55 55.20 8.12C55.20 7.88 55.37 7.73 55.62 7.62C55.92 7.67 56.24 7.70 56.59 7.70C58.53 7.70 59.64 6.90 59.64 5.54C59.64 5.12 59.54 4.76 59.33 4.45C59.58 4.31 59.84 4.26 60.16 4.24C60.66 4.24 60.91 2.77 60.41 2.79ZM56.59 6.51C55.71 6.51 55.19 6.16 55.19 5.54C55.19 4.90 55.71 4.55 56.59 4.55C57.48 4.55 58.00 4.90 58.00 5.54C58.00 6.16 57.48 6.51 56.59 6.51ZM55.55 9.86C55.66 9.86 56.00 9.87 56.24 9.88C57.25 9.91 58.18 9.91 58.18 10.64C58.18 11.27 57.62 11.68 56.76 11.68C55.80 11.68 55.20 11.27 55.20 10.63C55.20 10.26 55.33 10.01 55.55 9.86ZM68.46 8.48C68.33 8.54 68.24 8.57 68.14 8.57C67.86 8.57 67.72 8.37 67.72 7.97L67.72 3.78C67.72 3.22 66.08 3.22 66.08 3.78L66.08 7.64C65.48 8.34 64.88 8.61 64.32 8.61C63.48 8.61 63.01 8.15 63.01 7.13L63.01 3.54C63.01 2.88 61.39 3.58 61.39 4.24L61.39 7.70C61.39 9.16 62.24 10.04 63.64 10.04C64.60 10.04 65.48 9.70 66.16 9.00C66.35 9.76 66.81 10.04 67.37 10.04C67.72 10.04 68.08 9.94 68.46 9.80C69.05 9.53 69.02 8.22 68.46 8.48ZM74.44 3.82C73.92 5.26 73.30 6.72 72.62 8.11C71.71 6.59 71.12 5.38 70.63 3.84C70.42 3.21 68.67 3.22 68.89 3.84C69.59 5.81 70.55 7.64 71.85 9.60C71.69 9.90 71.54 10.18 71.39 10.46C70.99 11.14 70.64 11.42 70.25 11.42C70.07 11.42 69.87 11.37 69.66 11.24C69.09 10.92 68.96 12.26 69.45 12.53C69.82 12.71 70.18 12.81 70.55 12.81C71.27 12.81 71.99 12.40 72.62 11.33C74.09 8.82 75.28 6.34 76.16 3.82C76.37 3.23 74.63 3.22 74.44 3.82ZM82.89 6.23C82.89 4.38 81.87 3.37 79.83 3.37C77.70 3.37 76.59 4.66 76.59 6.66C76.59 9.04 78.32 10.04 80.04 10.04C80.82 10.04 81.56 9.83 82.21 9.42C82.60 9.17 82.60 8.02 82.08 8.25C81.37 8.57 80.75 8.75 80.16 8.75C79.18 8.75 78.27 8.27 78.25 7.28C78.62 7.34 79.04 7.36 79.42 7.36C81.19 7.36 82.89 6.89 82.89 6.23ZM78.27 6.10C78.29 5.03 79.00 4.62 79.90 4.62C80.88 4.62 81.40 5.08 81.40 5.77C81.40 5.98 80.49 6.16 79.32 6.16C78.99 6.16 78.64 6.15 78.27 6.10ZM90.96 8.57C90.83 8.62 90.73 8.64 90.64 8.64C90.36 8.64 90.22 8.44 90.22 8.04L90.22 7.52L90.22 5.73C90.22 4.26 89.36 3.37 87.96 3.37C87.02 3.37 86.16 3.71 85.47 4.38L85.25 3.67C85.11 3.29 83.87 3.25 83.87 3.78L83.87 9.63C83.87 10.19 85.51 10.19 85.51 9.63L85.51 5.77C86.11 5.08 86.72 4.82 87.28 4.82C88.12 4.82 88.58 5.26 88.58 6.30L88.58 7.20L88.58 8.29C88.58 9.65 89.14 10.11 89.87 10.11C90.22 10.11 90.58 10.01 90.96 9.87C91.55 9.62 91.52 8.29 90.96 8.57Z"></path></g><defs data-v-423bf9ae=""><linearGradient data-v-423bf9ae="" gradientTransform="rotate(25)" id="449c1a2d-93ab-468f-8815-fe99e6a284f9" x1="0%" y1="0%" x2="100%" y2="0%"><stop data-v-423bf9ae="" offset="0%" style="stop-color: rgb(13, 124, 233); stop-opacity: 1;"></stop><stop data-v-423bf9ae="" offset="100%" style="stop-color: rgb(21, 207, 241); stop-opacity: 1;"></stop></linearGradient></defs><g data-v-423bf9ae="" id="b8c5f018-845e-4294-9a9e-82de2c60e0ce" transform="matrix(1.5,0,0,1.5,-21,-3)" stroke="none" fill="url(#449c1a2d-93ab-468f-8815-fe99e6a284f9)"><style></style><path d="M45 36h-3v-4H14v25c0 2.8 2.2 5 5 5h18c2.8 0 5-2.2 5-5v-3h3c2.8 0 5-2.2 5-5v-8c0-2.8-2.2-5-5-5zM23.9 54.5l-1.7 1-4.4-7.5 4.3-7.5 1.7 1-3.6 6.5 3.7 6.5zm3.1.8l-2-.6 4-14 1.9.5L27 55.3zm6.9.2l-1.7-1 3.7-6.5-3.7-6.5 1.7-1 4.3 7.5-4.3 7.5zM48 49c0 1.7-1.3 3-3 3h-3V38h3c1.7 0 3 1.3 3 3v8zM38 30h-2v-2c0-1.1-.9-2-2-2H20c-2.2 0-4-1.8-4-4s1.8-4 4-4h14c1.1 0 2-.9 2-2s-.9-2-2-2H20c-2.2 0-4-1.8-4-4s1.8-4 4-4h14c1.1 0 2-.9 2-2V2h2v2c0 2.2-1.8 4-4 4H20c-1.1 0-2 .9-2 2s.9 2 2 2h14c2.2 0 4 1.8 4 4s-1.8 4-4 4H20c-1.1 0-2 .9-2 2s.9 2 2 2h14c2.2 0 4 1.8 4 4v2z"></path></g><!----></svg>