<svg width="100" height="100" viewBox="0 0 100 100" fill="none" xmlns="http://www.w3.org/2000/svg">
<path d="M70.3125 56.25H65.625V50H21.875V89.0625C21.875 93.4375 25.3125 96.875 29.6875 96.875H57.8125C62.1875 96.875 65.625 93.4375 65.625 89.0625V84.375H70.3125C74.6875 84.375 78.125 80.9375 78.125 76.5625V64.0625C78.125 59.6875 74.6875 56.25 70.3125 56.25ZM37.3437 85.1562L34.6875 86.7188L27.8125 75L34.5313 63.2812L37.1875 64.8438L31.5625 75L37.3437 85.1562ZM42.1875 86.4062L39.0625 85.4688L45.3125 63.5938L48.2812 64.375L42.1875 86.4062ZM52.9688 86.7188L50.3125 85.1562L56.0938 75L50.3125 64.8438L52.9688 63.2812L59.6875 75L52.9688 86.7188ZM75 76.5625C75 79.2188 72.9688 81.25 70.3125 81.25H65.625V59.375H70.3125C72.9688 59.375 75 61.4062 75 64.0625V76.5625Z" fill="url(#paint0_linear)"/>
<path d="M59.375 46.875H56.25V43.75C56.25 42.0312 54.8438 40.625 53.125 40.625H31.25C27.8125 40.625 25 37.8125 25 34.375C25 30.9375 27.8125 28.125 31.25 28.125H53.125C54.8438 28.125 56.25 26.7188 56.25 25C56.25 23.2812 54.8438 21.875 53.125 21.875H31.25C27.8125 21.875 25 19.0625 25 15.625C25 12.1875 27.8125 9.375 31.25 9.375H53.125C54.8438 9.375 56.25 7.96875 56.25 6.25V3.125H59.375V6.25C59.375 9.6875 56.5625 12.5 53.125 12.5H31.25C29.5312 12.5 28.125 13.9062 28.125 15.625C28.125 17.3438 29.5312 18.75 31.25 18.75H53.125C56.5625 18.75 59.375 21.5625 59.375 25C59.375 28.4375 56.5625 31.25 53.125 31.25H31.25C29.5312 31.25 28.125 32.6562 28.125 34.375C28.125 36.0938 29.5312 37.5 31.25 37.5H53.125C56.5625 37.5 59.375 40.3125 59.375 43.75V46.875Z" fill="url(#paint1_linear)"/>
<defs>
<linearGradient id="paint0_linear" x1="18.5048" y1="54.476" x2="51.6987" y2="85.4331" gradientUnits="userSpaceOnUse">
<stop stop-color="#0D7CE9"/>
<stop offset="0.489583" stop-color="#11A5ED"/>
<stop offset="1" stop-color="#15CFF1"/>
</linearGradient>
<linearGradient id="paint1_linear" x1="22.9404" y1="7.30259" x2="50.5674" y2="24.1728" gradientUnits="userSpaceOnUse">
<stop stop-color="#0D7CE9"/>
<stop offset="0.489583" stop-color="#11A5ED"/>
<stop offset="1" stop-color="#15CFF1"/>
</linearGradient>
</defs>
</svg>
